<svg aria-hidden="true" style="position: absolute; width: 0; height: 0; overflow: hidden;" version="1.1" xmlns="http://www.w3.org/2000/svg" xmlns:xlink="http://www.w3.org/1999/xlink">
<defs>
<symbol id="icon-Icons-1" viewBox="0 0 32 32">
<path d="M12 7c0-0.796 0.316-1.559 0.879-2.121s1.326-0.879 2.121-0.879h2c0.796 0 1.559 0.316 2.121 0.879s0.879 1.326 0.879 2.121v2c0 0.796-0.316 1.559-0.879 2.121s-1.326 0.879-2.121 0.879v2h11c0.265 0 0.52 0.105 0.707 0.293s0.293 0.442 0.293 0.707v2c0 0.265-0.105 0.52-0.293 0.707s-0.442 0.293-0.707 0.293-0.52-0.105-0.707-0.293c-0.188-0.188-0.293-0.442-0.293-0.707v-1h-10v1c0 0.265-0.105 0.52-0.293 0.707s-0.442 0.293-0.707 0.293c-0.265 0-0.52-0.105-0.707-0.293s-0.293-0.442-0.293-0.707v-1h-10v1c0 0.265-0.105 0.52-0.293 0.707s-0.442 0.293-0.707 0.293-0.52-0.105-0.707-0.293c-0.188-0.188-0.293-0.442-0.293-0.707v-2c0-0.265 0.105-0.52 0.293-0.707s0.442-0.293 0.707-0.293h11v-2c-0.796 0-1.559-0.316-2.121-0.879s-0.879-1.326-0.879-2.121v-2zM17 10c0.265 0 0.52-0.105 0.707-0.293s0.293-0.442 0.293-0.707v-2c0-0.265-0.105-0.52-0.293-0.707s-0.442-0.293-0.707-0.293h-2c-0.265 0-0.52 0.105-0.707 0.293s-0.293 0.442-0.293 0.707v2c0 0.265 0.105 0.52 0.293 0.707s0.442 0.293 0.707 0.293h2zM0 23c0-0.796 0.316-1.559 0.879-2.121s1.326-0.879 2.121-0.879h2c0.796 0 1.559 0.316 2.121 0.879s0.879 1.326 0.879 2.121v2c0 0.796-0.316 1.559-0.879 2.121s-1.326 0.879-2.121 0.879h-2c-0.796 0-1.559-0.316-2.121-0.879s-0.879-1.326-0.879-2.121v-2zM3 22c-0.265 0-0.52 0.105-0.707 0.293s-0.293 0.442-0.293 0.707v2c0 0.265 0.105 0.52 0.293 0.707s0.442 0.293 0.707 0.293h2c0.265 0 0.52-0.105 0.707-0.293s0.293-0.442 0.293-0.707v-2c0-0.265-0.105-0.52-0.293-0.707s-0.442-0.293-0.707-0.293h-2zM12 23c0-0.796 0.316-1.559 0.879-2.121s1.326-0.879 2.121-0.879h2c0.796 0 1.559 0.316 2.121 0.879s0.879 1.326 0.879 2.121v2c0 0.796-0.316 1.559-0.879 2.121s-1.326 0.879-2.121 0.879h-2c-0.796 0-1.559-0.316-2.121-0.879s-0.879-1.326-0.879-2.121v-2zM15 22c-0.265 0-0.52 0.105-0.707 0.293s-0.293 0.442-0.293 0.707v2c0 0.265 0.105 0.52 0.293 0.707s0.442 0.293 0.707 0.293h2c0.265 0 0.52-0.105 0.707-0.293s0.293-0.442 0.293-0.707v-2c0-0.265-0.105-0.52-0.293-0.707s-0.442-0.293-0.707-0.293h-2zM24 23c0-0.796 0.316-1.559 0.879-2.121s1.326-0.879 2.121-0.879h2c0.796 0 1.559 0.316 2.121 0.879s0.879 1.326 0.879 2.121v2c0 0.796-0.316 1.559-0.879 2.121s-1.326 0.879-2.121 0.879h-2c-0.796 0-1.559-0.316-2.121-0.879s-0.879-1.326-0.879-2.121v-2zM27 22c-0.265 0-0.52 0.105-0.707 0.293s-0.293 0.442-0.293 0.707v2c0 0.265 0.105 0.52 0.293 0.707s0.442 0.293 0.707 0.293h2c0.265 0 0.52-0.105 0.707-0.293s0.293-0.442 0.293-0.707v-2c0-0.265-0.105-0.52-0.293-0.707s-0.442-0.293-0.707-0.293h-2z"></path>
</symbol>
<symbol id="icon-Icons-2" viewBox="0 0 32 32">
<path d="M27.98 13.799c-0.014-0.066-0.035-0.131-0.063-0.193l-2.361-5.51c-0.544-1.273-1.869-2.096-3.376-2.096h-12.361c-1.506 0-2.831 0.823-3.375 2.096l-2.364 5.51c-0.054 0.124-0.081 0.258-0.081 0.394v11c0 0.265 0.105 0.52 0.293 0.707s0.442 0.293 0.707 0.293h2c0.265 0 0.52-0.105 0.707-0.293s0.293-0.442 0.293-0.707v-1h16v1c0 0.265 0.105 0.52 0.293 0.707s0.442 0.293 0.707 0.293h2c0.265 0 0.52-0.105 0.707-0.293s0.293-0.442 0.293-0.707v-11c0-0.068-0.007-0.135-0.020-0.201zM9 20c-0.396 0-0.782-0.117-1.111-0.337s-0.585-0.532-0.737-0.897c-0.151-0.366-0.191-0.768-0.114-1.156s0.268-0.744 0.547-1.024 0.636-0.47 1.024-0.547c0.388-0.077 0.79-0.038 1.156 0.114s0.678 0.408 0.898 0.736c0.22 0.329 0.337 0.716 0.337 1.111 0 0.53-0.211 1.039-0.586 1.414s-0.884 0.586-1.414 0.586zM23 20c-0.396 0-0.782-0.117-1.111-0.337s-0.585-0.532-0.736-0.897c-0.152-0.366-0.191-0.768-0.114-1.156s0.268-0.744 0.547-1.024 0.636-0.47 1.024-0.547c0.388-0.077 0.79-0.038 1.156 0.114s0.678 0.408 0.897 0.736c0.22 0.329 0.337 0.716 0.337 1.111 0 0.53-0.211 1.039-0.586 1.414s-0.884 0.586-1.414 0.586zM6.516 13l1.764-4.116c0.226-0.529 0.844-0.884 1.539-0.884h12.361c0.694 0 1.312 0.356 1.539 0.884l1.764 4.116h-18.967z"></path>
</symbol>
<symbol id="icon-Icons" viewBox="0 0 32 32">
<path d="M6 5c0-0.265 0.105-0.52 0.293-0.707s0.442-0.293 0.707-0.293h10c0.265 0 0.52 0.105 0.707 0.293s0.293 0.442 0.293 0.707v10c0 0.265-0.105 0.52-0.293 0.707s-0.442 0.293-0.707 0.293h-10c-0.265 0-0.52-0.105-0.707-0.293s-0.293-0.442-0.293-0.707v-10z"></path>
<path d="M2 4c0-1.061 0.421-2.078 1.172-2.828s1.768-1.172 2.828-1.172h12c1.061 0 2.078 0.421 2.828 1.172s1.172 1.768 1.172 2.828v16c1.061 0 2.078 0.421 2.828 1.172s1.172 1.768 1.172 2.828v1c0 0.265 0.105 0.52 0.293 0.707s0.442 0.293 0.707 0.293 0.52-0.105 0.707-0.293c0.188-0.188 0.293-0.442 0.293-0.707v-9h-1c-0.265 0-0.52-0.105-0.707-0.293s-0.293-0.442-0.293-0.707v-6.25c0-0.265 0.105-0.52 0.293-0.707s0.442-0.293 0.707-0.293h2.99c-0.022-0.952-0.106-1.788-0.402-2.444-0.158-0.381-0.435-0.702-0.788-0.916-0.368-0.22-0.928-0.39-1.8-0.39-0.265 0-0.52-0.105-0.707-0.293s-0.293-0.442-0.293-0.707 0.105-0.52 0.293-0.707c0.188-0.188 0.442-0.293 0.707-0.293 1.128-0.003 2.069 0.221 2.824 0.672 0.766 0.456 1.268 1.102 1.588 1.814 0.59 1.31 0.588 2.93 0.588 4.162v6.35c0 0.132-0.025 0.262-0.076 0.383s-0.124 0.232-0.217 0.325c-0.093 0.093-0.203 0.167-0.325 0.217s-0.252 0.076-0.383 0.076h-1v9c0 0.796-0.316 1.559-0.879 2.121s-1.326 0.879-2.121 0.879-1.559-0.316-2.121-0.879c-0.563-0.563-0.879-1.326-0.879-2.121v-1c0-0.53-0.211-1.039-0.586-1.414s-0.884-0.586-1.414-0.586v8h1c0.265 0 0.52 0.105 0.707 0.293s0.293 0.442 0.293 0.707-0.105 0.52-0.293 0.707c-0.188 0.188-0.442 0.293-0.707 0.293h-22c-0.265 0-0.52-0.105-0.707-0.293s-0.293-0.442-0.293-0.707 0.105-0.52 0.293-0.707c0.188-0.188 0.442-0.293 0.707-0.293h1v-26zM20 4c0-0.53-0.211-1.039-0.586-1.414s-0.884-0.586-1.414-0.586h-12c-0.53 0-1.039 0.211-1.414 0.586s-0.586 0.884-0.586 1.414v26h16v-26z"></path>
</symbol>
<symbol id="icon-map" viewBox="0 0 32 32">
<path d="M31.634 0.226c0.115 0.094 0.207 0.212 0.27 0.346s0.096 0.28 0.096 0.428v28c-0 0.231-0.080 0.455-0.227 0.634s-0.351 0.301-0.577 0.346l-10 2c-0.129 0.026-0.263 0.026-0.392 0l-9.804-1.96-9.804 1.96c-0.145 0.029-0.295 0.025-0.438-0.010s-0.277-0.103-0.392-0.197c-0.114-0.094-0.207-0.212-0.27-0.345s-0.096-0.28-0.096-0.428v-28c0-0.231 0.080-0.455 0.227-0.634s0.351-0.301 0.577-0.346l10-2c0.129-0.026 0.263-0.026 0.392 0l9.804 1.96 9.804-1.96c0.145-0.029 0.295-0.026 0.438 0.010s0.277 0.103 0.392 0.196zM20 3.82l-8-1.6v25.96l8 1.6v-25.96zM22 29.78l8-1.6v-25.96l-8 1.6v25.96zM10 28.18v-25.96l-8 1.6v25.96l8-1.6z"></path>
</symbol>
<symbol id="icon-star" viewBox="0 0 32 32">
<path fill="#ffc531" style="fill: var(--color1, #ffc531)" d="M15.116 1.676c0.375-0.711 1.394-0.711 1.769 0l3.777 7.158c0.145 0.274 0.408 0.466 0.714 0.519l7.975 1.38c0.792 0.137 1.107 1.106 0.547 1.682l-5.641 5.804c-0.216 0.222-0.317 0.532-0.273 0.839l1.152 8.010c0.114 0.796-0.71 1.395-1.431 1.040l-7.263-3.571c-0.278-0.137-0.604-0.137-0.882 0l-7.262 3.571c-0.722 0.355-1.546-0.244-1.431-1.040l1.152-8.010c0.044-0.307-0.057-0.617-0.273-0.839l-5.64-5.804c-0.56-0.577-0.246-1.545 0.547-1.682l7.974-1.38c0.306-0.053 0.569-0.244 0.714-0.519l3.776-7.158z"></path>
</symbol>
</defs>
</svg>
